<?xml version="1.0" standalone="no"?>
<!DOCTYPE svg PUBLIC "-//W3C//DTD SVG 20010904//EN"
 "http://www.w3.org/TR/2001/REC-SVG-20010904/DTD/svg10.dtd">
<svg version="1.0" xmlns="http://www.w3.org/2000/svg"
 width="144.000000pt" height="144.000000pt" viewBox="0 0 144.000000 144.000000"
 preserveAspectRatio="xMidYMid meet">
<g transform="translate(0.000000,144.000000) scale(0.014063,-0.014063)"
fill="#000000" stroke="none">
<path d="M4865 8279 c-519 -50 -1067 -270 -1470 -589 -400 -317 -672 -632
-875 -1013 -113 -213 -233 -530 -264 -697 -18 -97 -50 -449 -67 -745 -46 -799
149 -1568 521 -2055 114 -148 340 -391 449 -483 332 -279 499 -390 801 -536
322 -155 709 -267 1039 -302 232 -24 597 1 816 57 387 98 704 227 1006 408
540 322 966 829 1230 1459 28 68 28 68 6 61 -12 -3 -38 -15 -58 -25 -126 -63
-418 -166 -566 -198 -223 -48 -562 -61 -758 -27 -452 76 -803 262 -1085 573
-289 320 -432 784 -364 1184 75 443 364 844 788 1093 437 258 962 345 1473
246 129 -25 321 -80 396 -114 68 -30 70 -39 -31 124 -214 343 -424 608 -632
797 -319 291 -701 521 -1085 652 -154 53 -416 108 -620 131 -103 11 -531 11
-650 -1z m1005 -414 c525 -81 985 -290 1445 -654 83 -65 335 -293 330 -298 -1
-2 -35 10 -76 26 -391 150 -691 212 -1028 212 -251 -1 -499 -42 -730 -123
-121 -41 -369 -165 -474 -236 -388 -259 -662 -631 -792 -1070 -73 -247 -101
-533 -76 -767 79 -733 474 -1305 1116 -1616 209 -101 406 -163 630 -198 447
-71 957 14 1373 229 l113 58 -103 -110 c-185 -200 -400 -381 -608 -512 -630
-399 -1352 -518 -2062 -340 -317 80 -620 212 -878 382 -183 120 -271 192 -426
346 -415 415 -688 925 -789 1471 -38 210 -48 348 -42 575 10 350 71 641 202
961 216 529 570 954 1039 1249 392 247 774 379 1236 429 123 14 475 5 600 -14z"/>
</g>
</svg>
