<?xml version="1.0" standalone="no"?>
<!DOCTYPE svg PUBLIC "-//W3C//DTD SVG 20010904//EN"
 "http://www.w3.org/TR/2001/REC-SVG-20010904/DTD/svg10.dtd">
<svg version="1.0" xmlns="http://www.w3.org/2000/svg"
 width="144.000000pt" height="144.000000pt" viewBox="0 0 144.000000 144.000000"
 preserveAspectRatio="xMidYMid meet">
<g transform="translate(0.000000,144.000000) scale(0.014063,-0.014063)"
fill="#000000" stroke="none">
<path d="M3774 7273 c-714 -1181 -1299 -2153 -1299 -2161 0 -13 2554 -1527
2596 -1539 20 -6 2614 1522 2613 1539 -1 7 -533 893 -1184 1968 -651 1075
-1235 2042 -1299 2147 -64 106 -119 193 -122 193 -3 0 -590 -966 -1305 -2147z"/>
<path d="M2486 4548 c5 -7 344 -481 754 -1053 410 -572 990 -1383 1290 -1801
410 -573 548 -759 557 -750 6 6 566 785 1243 1731 678 946 1259 1756 1291
1800 31 44 53 81 49 83 -10 4 -97 -45 -1485 -843 -1079 -620 -1110 -636 -1135
-622 -412 238 -2560 1467 -2565 1467 -3 0 -3 -6 1 -12z"/>
</g>
</svg>
