<?xml version="1.0" standalone="no"?>
<!DOCTYPE svg PUBLIC "-//W3C//DTD SVG 20010904//EN"
 "http://www.w3.org/TR/2001/REC-SVG-20010904/DTD/svg10.dtd">
<svg version="1.0" xmlns="http://www.w3.org/2000/svg"
 width="144.000000pt" height="144.000000pt" viewBox="0 0 144.000000 144.000000"
 preserveAspectRatio="xMidYMid meet">
<g transform="translate(0.000000,144.000000) scale(0.014063,-0.014063)"
fill="#000000" stroke="none">
<path d="M1188 7713 c-26 -30 -36 -55 -52 -135 -66 -318 92 -778 386 -1125 73
-87 154 -161 226 -208 70 -46 39 -41 -51 9 -105 57 -211 132 -339 242 -98 83
-112 91 -135 76 -22 -14 -64 -121 -70 -175 -19 -181 165 -459 410 -620 48 -32
87 -59 87 -61 0 -2 -42 9 -92 25 -303 96 -368 106 -407 65 -20 -22 -22 -31
-17 -71 4 -25 26 -83 49 -128 54 -106 168 -221 287 -291 203 -120 482 -215
665 -228 32 -2 3 -13 -145 -51 -239 -63 -331 -92 -405 -129 -72 -36 -155 -97
-155 -114 0 -21 84 -87 151 -121 152 -75 276 -102 494 -109 199 -7 324 8 466
56 50 16 93 30 96 30 13 0 -155 -104 -332 -205 -367 -209 -489 -309 -462 -379
13 -32 215 -86 322 -86 62 0 181 22 244 44 24 9 45 16 47 16 2 0 -30 -34 -70
-75 -57 -59 -90 -83 -149 -110 -84 -39 -96 -50 -76 -70 18 -18 212 -72 288
-81 99 -11 302 43 408 109 64 40 69 41 42 11 -14 -16 -37 -46 -52 -66 -55 -75
-141 -159 -227 -223 -95 -69 -112 -95 -85 -126 33 -35 244 -99 330 -99 53 0
209 53 278 94 114 69 234 192 295 305 l28 50 27 -227 c14 -125 29 -258 33
-297 6 -74 28 -135 49 -135 35 0 88 126 121 291 10 49 21 89 25 89 3 0 12 -27
18 -61 55 -280 231 -566 394 -639 56 -26 72 -25 96 6 34 43 23 174 -25 310 -4
10 27 -26 68 -81 143 -193 302 -303 338 -236 14 28 12 134 -5 216 -8 39 -64
218 -125 398 -60 180 -110 336 -110 346 0 10 7 32 15 47 8 16 15 57 16 94 0
57 25 169 28 130 19 -239 21 -252 57 -348 42 -113 71 -172 83 -172 5 0 5 17 0
38 -34 135 -16 148 46 30 24 -45 42 -65 51 -55 2 2 -7 52 -21 111 -15 59 -25
112 -23 117 5 15 116 -240 151 -346 21 -65 31 -117 35 -187 5 -111 18 -134 53
-102 31 27 56 92 75 192 31 165 4 328 -121 720 -8 24 4 11 68 -70 36 -46 77
-94 91 -108 l27 -25 -27 75 c-14 41 -57 136 -94 210 -87 175 -130 276 -230
550 -135 368 -188 497 -265 646 -206 402 -486 703 -818 879 -153 82 -372 148
-777 236 -293 63 -503 144 -700 269 -390 248 -624 518 -799 925 -40 94 -65
135 -81 135 -4 0 -14 -8 -22 -17z m237 -593 c128 -185 455 -470 691 -602 180
-101 393 -172 734 -242 253 -53 410 -93 501 -128 74 -28 169 -75 169 -83 0 -2
-39 10 -87 26 -118 40 -245 72 -438 108 -88 17 -222 42 -297 56 -75 14 -204
47 -285 74 -81 27 -149 47 -151 46 -3 -2 120 -57 378 -168 457 -197 837 -374
913 -426 392 -264 752 -771 932 -1311 82 -245 98 -285 175 -415 72 -122 111
-218 149 -366 43 -171 48 -239 6 -91 -47 168 -84 256 -164 397 -107 187 -124
226 -196 450 -70 215 -140 369 -256 561 -222 369 -526 676 -793 800 -104 48
-314 116 -536 174 -451 118 -622 173 -758 245 -176 92 -414 333 -559 565 -62
101 -175 333 -198 410 -10 33 0 23 70 -80z m-72 -741 c190 -162 364 -248 842
-419 127 -45 144 -53 327 -147 222 -116 427 -182 563 -183 65 -1 68 -2 45 -14
-54 -30 -145 -41 -320 -40 -403 1 -879 134 -1181 329 -141 91 -274 241 -324
364 -24 58 -44 171 -31 171 3 0 39 -28 79 -61z m127 -714 c307 -104 681 -204
875 -236 102 -16 163 -20 282 -17 172 3 174 -4 10 -41 -54 -13 -97 -24 -95
-26 2 -2 64 2 138 10 170 18 172 18 130 -5 -48 -27 -179 -69 -270 -86 -298
-58 -716 3 -983 144 -99 52 -149 101 -191 185 -24 50 -44 117 -34 117 2 0 64
-20 138 -45z m1868 -245 c10 0 41 9 71 21 46 17 52 18 41 4 -33 -40 -184 -95
-260 -95 -44 0 -104 29 -108 53 -5 23 25 57 48 57 10 0 31 -7 46 -15 39 -20
77 -19 105 4 24 19 24 19 32 -5 5 -13 16 -24 25 -24z m322 -162 c0 -22 -11
-41 -38 -68 -53 -54 -126 -74 -248 -68 -122 5 -128 12 -89 85 37 68 55 78 55
31 0 -55 14 -64 38 -26 17 27 22 30 28 15 3 -9 3 -29 0 -43 -7 -26 -6 -27 36
-21 35 4 50 14 80 48 37 43 59 49 38 10 -6 -12 -7 -21 -2 -21 18 0 60 40 72
70 15 36 30 30 30 -12z m-590 -23 c0 -7 14 -24 31 -36 l32 -22 -34 -18 -34
-18 28 -1 c15 0 44 7 65 15 l37 16 -45 -46 c-143 -147 -510 -323 -805 -385
-127 -27 -332 -36 -450 -21 -84 11 -291 73 -352 105 -27 14 -27 14 52 39 103
32 138 39 390 83 400 69 752 169 1015 287 57 25 70 26 70 2z m149 -401 c-91
-138 -132 -188 -219 -274 -217 -214 -413 -355 -559 -403 -102 -34 -218 -51
-296 -42 -91 9 -98 18 -50 61 82 74 185 145 360 249 194 116 359 231 415 290
19 20 48 46 64 58 28 20 29 20 24 1 -3 -10 -9 -28 -14 -38 -7 -18 -4 -18 27 4
19 13 72 60 118 104 77 74 83 78 78 51 -3 -16 -9 -39 -13 -50 -3 -11 33 22 81
73 48 51 89 91 91 89 2 -2 -46 -80 -107 -173z m298 -7 c-7 -71 -57 -236 -94
-312 -38 -76 -96 -148 -152 -190 -41 -29 -53 -45 -62 -80 -14 -55 -71 -120
-193 -219 -94 -77 -237 -166 -265 -166 -8 0 6 14 30 32 166 119 240 221 246
342 2 33 0 55 -3 48 -4 -9 -10 -10 -19 -2 -15 12 -14 13 -55 -107 -31 -90 -67
-149 -127 -204 -121 -114 -264 -168 -404 -154 -38 4 -69 10 -69 14 0 3 17 16
38 27 99 57 415 326 427 364 4 11 33 38 65 60 32 22 79 58 105 80 25 22 48 40
51 40 2 0 2 -10 -1 -22 -3 -13 -1 -30 5 -38 8 -12 25 1 95 70 105 103 145 163
215 319 30 66 56 118 58 117 4 -5 -48 -166 -74 -223 -12 -29 -44 -85 -69 -124
-46 -71 -46 -72 -13 -44 96 80 220 271 249 383 7 29 15 52 17 52 3 0 2 -28 -1
-63z m136 -8 c9 -17 17 -38 17 -47 0 -40 -53 -232 -91 -329 -35 -90 -47 -108
-82 -134 -38 -28 -77 -36 -111 -23 -25 10 -19 25 38 96 117 145 212 346 204
430 -4 46 1 48 25 7z m122 -235 c-15 -58 -35 -126 -45 -150 -11 -24 -17 -44
-15 -44 2 0 23 25 45 55 58 79 97 166 106 238 6 51 9 57 14 32 13 -66 -24
-222 -77 -328 -35 -70 -99 -137 -132 -137 -29 0 -91 34 -91 50 0 6 30 52 66
103 97 135 141 235 146 326 l1 36 4 -38 c3 -21 -7 -85 -22 -143z m193 -176 c5
-76 13 -143 18 -148 7 -7 17 9 29 51 16 53 17 69 7 130 -13 75 -16 156 -6 146
4 -4 10 -44 14 -90 8 -83 38 -175 66 -198 22 -18 49 13 95 106 35 70 39 75 33
40 -3 -22 -19 -74 -35 -115 -40 -105 -99 -160 -173 -160 -67 0 -89 81 -79 293
8 163 20 141 31 -55z m-501 -315 c-4 -120 -23 -179 -93 -296 -73 -119 -259
-281 -349 -302 -29 -7 -28 -6 21 46 29 30 70 81 92 114 45 68 173 319 192 380
13 38 13 39 22 15 5 -14 8 -53 6 -87 -1 -34 0 -65 4 -69 17 -17 73 145 93 269
11 67 15 39 12 -70z m283 -59 c0 -80 -113 -588 -141 -633 -7 -11 -7 -5 -2 19
4 19 7 149 5 288 -1 138 1 252 5 252 4 0 17 -10 30 -22 13 -12 26 -19 29 -16
3 4 15 55 27 114 20 102 22 106 34 78 6 -16 12 -52 13 -80z m-515 -96 c-36
-146 -167 -355 -271 -437 -44 -33 -52 -36 -115 -36 -37 0 -71 3 -75 7 -3 4 16
33 43 65 77 90 125 159 197 281 59 98 73 115 114 137 59 31 74 43 98 80 l19
29 3 -32 c2 -17 -4 -60 -13 -94z m1005 33 c58 -300 86 -398 194 -681 86 -226
132 -400 105 -400 -22 0 -205 194 -258 275 -65 100 -140 253 -187 381 -39 108
-87 296 -82 321 2 8 23 -26 48 -76 24 -50 47 -91 50 -91 6 0 2 38 -15 154 -10
62 7 55 29 -12 9 -26 34 -78 56 -116 22 -38 49 -87 59 -110 44 -95 50 -83 20
39 -40 163 -59 278 -59 350 1 54 2 58 15 41 8 -10 19 -44 25 -75z m-264 -70
c-17 -139 -19 -221 -6 -261 7 -21 8 -22 10 -5 2 23 6 12 74 -210 50 -166 86
-309 85 -340 l0 -20 -9 20 c-13 31 -107 335 -116 375 -4 19 -9 30 -11 24 -6
-17 34 -185 81 -344 24 -80 47 -167 51 -194 l8 -49 -31 22 c-83 58 -188 212
-243 354 -46 120 -79 255 -79 325 0 66 8 76 33 40 13 -19 16 -20 16 -5 1 11 9
17 22 17 19 0 21 4 16 38 -4 20 -9 69 -12 107 -3 39 -8 88 -11 110 -4 29 -2
37 6 29 6 -6 17 -56 24 -110 l14 -99 1 76 c1 66 6 85 41 158 22 46 43 81 46
78 3 -3 -1 -64 -10 -136z m-417 -49 c19 -115 31 -270 30 -371 l-1 -96 -13 65
c-15 76 -45 362 -45 432 0 68 16 52 29 -30z"/>
<path d="M9032 7712 c-11 -11 -27 -41 -37 -68 -66 -181 -116 -282 -208 -419
-199 -297 -543 -568 -892 -702 -157 -61 -219 -77 -577 -154 -442 -94 -620
-168 -883 -367 -145 -111 -294 -275 -418 -464 -143 -217 -220 -382 -366 -787
-128 -353 -201 -532 -297 -728 -46 -94 -87 -187 -91 -205 l-6 -33 28 25 c15
14 55 67 88 117 33 51 62 91 64 90 1 -2 -13 -61 -32 -133 -88 -325 -89 -332
-90 -464 0 -102 4 -138 22 -196 25 -79 60 -137 86 -142 15 -3 17 7 17 90 0
116 14 172 91 357 101 241 120 265 74 93 -42 -158 -31 -173 40 -52 64 109 77
108 51 -5 -8 -33 -13 -62 -10 -64 10 -11 26 22 72 154 58 164 118 312 139 340
13 18 14 15 8 -35 -15 -123 -48 -267 -90 -393 -151 -457 -195 -617 -198 -710
-3 -103 28 -120 119 -68 68 39 167 137 244 241 36 49 60 74 56 60 -19 -76 -37
-211 -33 -248 5 -46 30 -82 57 -82 34 0 118 52 175 107 117 115 209 292 260
497 l32 130 28 -115 c51 -209 94 -297 133 -273 23 15 30 46 31 139 1 44 15
163 31 265 16 102 30 201 30 220 0 34 0 34 38 -30 46 -81 216 -253 294 -298
72 -43 188 -82 258 -89 63 -5 227 37 302 79 63 34 61 56 -9 114 -96 80 -225
214 -280 291 l-52 71 104 -49 c234 -110 369 -137 512 -101 100 25 183 60 183
77 0 7 -33 29 -74 48 -48 23 -97 57 -145 102 -39 37 -70 69 -68 71 1 2 25 -4
52 -13 73 -24 308 -23 394 1 168 46 179 75 67 181 -40 38 -124 102 -187 141
-358 223 -508 319 -504 322 2 2 25 -6 52 -18 136 -60 423 -88 639 -60 169 21
366 95 457 171 60 49 51 64 -78 131 -111 58 -283 118 -510 180 l-120 33 80 8
c215 21 533 147 709 279 124 93 224 249 234 363 4 57 2 64 -19 79 -35 24 -62
21 -270 -39 -105 -30 -195 -55 -198 -55 -3 0 29 22 71 49 145 94 311 271 370
397 28 59 33 83 36 166 4 98 -10 171 -44 226 -21 33 -42 27 -114 -28 -212
-164 -278 -211 -369 -264 -56 -32 -104 -56 -106 -54 -3 3 27 26 65 53 95 64
205 185 302 329 225 337 329 710 272 984 -17 80 -33 120 -58 141 -12 10 -18 9
-34 -7z m-143 -554 c-122 -315 -284 -568 -477 -749 -210 -197 -364 -265 -918
-408 -498 -129 -668 -196 -862 -341 -203 -151 -422 -399 -578 -657 -118 -193
-179 -329 -259 -570 -48 -144 -92 -257 -120 -308 -132 -239 -211 -414 -245
-545 -8 -29 -9 -26 -4 20 7 79 78 280 136 390 28 52 69 128 90 168 22 40 71
168 109 285 143 436 352 781 663 1093 242 242 289 271 821 499 94 40 271 118
395 172 124 55 266 117 317 138 51 21 91 40 90 42 -2 1 -57 -16 -122 -38 -132
-44 -280 -81 -395 -98 -236 -36 -633 -130 -744 -176 -50 -21 -56 -13 -10 14
115 68 274 116 639 191 442 92 638 164 885 327 224 148 432 343 540 505 36 54
66 98 67 98 2 0 -6 -24 -18 -52z m117 -794 c-16 -140 -100 -265 -271 -406 -76
-63 -246 -156 -407 -222 -312 -129 -767 -197 -1020 -152 -93 17 -132 35 -77
36 121 1 413 111 649 245 35 20 118 55 185 77 166 57 409 158 540 227 145 75
246 142 325 218 75 70 87 67 76 -23z m-106 -778 c-19 -41 -48 -80 -80 -109
-95 -85 -302 -168 -534 -212 -192 -37 -463 -28 -632 21 -92 26 -200 71 -192
80 3 3 48 1 99 -5 192 -22 195 -22 174 -12 -11 5 -32 10 -46 10 -31 1 -181 40
-191 49 -4 4 61 5 145 4 176 -4 293 8 457 48 121 30 494 140 705 209 l120 39
3 -29 c2 -17 -9 -55 -28 -93z m-1811 -141 c23 -5 31 -4 27 4 -12 19 23 12 44
-9 23 -23 15 -51 -20 -70 -58 -31 -244 10 -289 64 -17 20 -2 20 35 1 34 -18
67 -18 113 -1 22 8 31 15 23 20 -7 4 -12 12 -12 17 0 5 10 3 23 -5 12 -8 37
-17 56 -21z m-422 -222 c35 -37 60 -45 43 -14 -20 37 -10 46 16 13 29 -36 72
-62 105 -62 19 0 21 4 16 30 -7 32 1 38 21 18 15 -15 31 4 32 37 0 11 4 26 9
34 7 10 21 -4 56 -57 26 -39 44 -75 41 -81 -19 -31 -183 -37 -281 -10 -48 13
-125 88 -125 123 0 31 13 41 25 20 5 -10 24 -33 42 -51z m689 -19 c304 -122
538 -188 937 -264 144 -27 306 -64 361 -81 l99 -32 -83 -33 c-165 -67 -234
-79 -440 -78 -151 0 -203 4 -284 22 -216 48 -435 139 -641 267 -112 69 -210
140 -234 169 -18 21 -16 21 53 -14 84 -43 133 -39 64 5 -34 21 -52 53 -25 42
10 -4 16 3 21 24 3 16 12 29 19 29 8 0 77 -25 153 -56z m-227 -296 c27 -42 40
-55 49 -46 8 8 20 1 44 -24 38 -40 130 -108 147 -108 6 0 8 12 5 33 -6 31 -4
29 72 -44 106 -102 211 -186 314 -249 160 -100 256 -168 326 -232 38 -35 80
-71 94 -81 43 -30 13 -42 -108 -41 -123 1 -177 16 -294 83 -109 62 -190 126
-308 243 -126 125 -210 228 -298 363 -36 55 -84 126 -108 157 -24 31 -44 60
-44 64 0 16 73 -63 109 -118z m-217 -121 c49 -100 182 -290 233 -331 l47 -39
-36 48 c-42 55 -72 111 -109 205 -45 116 -39 117 20 5 77 -144 111 -194 204
-290 62 -63 80 -77 90 -68 10 10 9 17 -7 35 -55 64 101 -83 202 -190 133 -141
256 -252 348 -313 l61 -42 -115 6 c-120 5 -178 20 -277 70 -108 55 -222 188
-271 317 -12 30 -21 49 -21 41 -1 -8 -10 -3 -22 13 -26 33 -49 34 -49 1 0 -76
152 -260 289 -350 57 -38 37 -44 -30 -9 -168 85 -287 179 -360 286 -44 64 -49
78 -18 47 26 -26 29 -23 20 21 l-7 35 -60 -3 c-74 -4 -112 19 -166 98 -42 62
-108 221 -134 323 -14 57 -15 74 -4 112 7 25 15 43 18 41 2 -3 0 -18 -6 -35
-9 -25 -4 -44 34 -138 24 -59 65 -139 91 -178 55 -81 168 -195 193 -195 22 0
51 -33 85 -96 26 -50 115 -148 115 -128 0 6 -15 28 -33 50 -18 21 -46 62 -62
89 -15 28 -47 70 -70 95 -81 88 -171 266 -221 439 -13 46 -24 95 -23 110 l0
26 11 -25 c6 -14 24 -51 40 -83z m-294 19 c2 -56 40 -157 91 -243 41 -71 57
-93 130 -187 42 -54 43 -57 25 -71 -10 -8 -33 -15 -51 -15 -61 0 -116 86 -177
280 -41 129 -53 211 -37 253 6 15 12 27 14 27 1 0 4 -20 5 -44z m-238 -116 c0
-44 40 -141 90 -217 30 -46 55 -81 57 -80 1 2 -13 53 -31 114 -18 61 -36 128
-40 149 -5 32 -2 28 17 -22 30 -79 53 -118 139 -232 71 -94 71 -94 51 -114
-29 -29 -91 -34 -129 -10 -45 29 -111 135 -140 227 -29 90 -45 223 -26 211 7
-4 12 -16 12 -26z m-75 -277 c8 -157 0 -200 -41 -232 -20 -16 -30 -17 -64 -9
-64 17 -106 62 -145 158 -40 98 -49 168 -11 84 23 -51 81 -124 97 -124 20 0
61 116 66 188 3 40 10 75 16 79 7 4 8 -19 2 -73 -12 -110 -10 -144 7 -184 14
-35 15 -35 27 -12 7 13 15 83 18 164 4 78 9 133 13 122 4 -10 11 -83 15 -161z
m546 -500 l23 -48 7 98 c4 54 10 101 13 104 14 15 40 -30 95 -168 76 -190 125
-291 152 -315 18 -16 18 -12 -6 24 -15 23 -26 45 -23 48 3 2 23 -21 43 -53 21
-32 54 -71 72 -87 19 -15 32 -31 29 -33 -3 -3 -45 14 -93 37 -68 33 -104 59
-159 114 -110 111 -153 174 -190 284 -34 97 -40 135 -27 182 5 19 10 7 24 -57
10 -46 28 -104 40 -130z m-315 89 c4 -45 10 -82 14 -82 3 0 17 11 30 25 17 18
27 22 34 15 7 -7 11 -93 12 -238 1 -125 7 -256 13 -292 22 -132 8 -104 -48 90
-33 115 -82 334 -101 447 -7 41 -20 83 -31 97 -28 35 -23 42 6 9 l24 -28 13
32 c17 45 26 25 34 -75z m-237 -86 c12 -44 21 -110 21 -148 0 -37 3 -68 8 -68
4 0 15 50 25 111 9 64 27 135 41 165 25 53 44 75 27 31 -16 -40 -72 -337 -69
-359 4 -27 43 -34 75 -13 23 15 23 15 23 -29 0 -152 -101 -424 -212 -570 -51
-67 -123 -135 -133 -125 -6 7 27 160 73 331 22 81 37 146 33 143 -4 -2 -24
-57 -45 -122 -21 -65 -42 -127 -47 -138 -25 -59 36 219 76 348 14 43 25 90 26
105 l1 27 12 -29 c13 -29 13 -28 26 38 13 72 10 143 -10 191 -11 29 -13 27
-46 -83 -109 -359 -236 -583 -424 -751 -84 -75 -85 -76 -88 -48 -5 41 35 172
127 418 44 119 88 249 99 290 41 157 104 385 113 409 22 62 -27 -267 -61 -405
-11 -43 -18 -81 -16 -83 8 -7 57 86 113 213 55 123 58 128 61 92 2 -22 -1 -53
-7 -69 -24 -68 -11 -70 36 -7 57 77 71 117 80 217 l7 77 17 -40 c10 -22 27
-76 38 -119z m831 33 c8 -1 21 -2 29 -3 8 0 24 -17 35 -36 63 -113 166 -271
222 -342 35 -44 64 -84 64 -88 0 -10 -38 -20 -80 -20 -41 0 -119 43 -169 92
-49 48 -143 195 -174 270 -24 60 -57 196 -57 234 0 11 21 -5 58 -44 31 -34 64
-63 72 -63z m-435 -252 c-16 -180 -33 -297 -43 -297 -12 0 8 387 23 449 35
144 43 86 20 -152z"/>
<path d="M4755 6644 c-157 -17 -391 -64 -499 -100 -211 -69 -336 -170 -336
-272 0 -40 51 -115 102 -150 180 -123 512 -211 918 -242 552 -42 1290 135
1383 333 46 97 -17 205 -159 272 -142 68 -471 142 -729 164 -165 15 -523 12
-680 -5z m661 -84 c286 -23 587 -93 710 -165 154 -90 137 -180 -54 -279 -150
-77 -334 -127 -593 -162 -151 -20 -497 -23 -649 -5 -462 54 -790 190 -790 329
0 114 377 248 805 285 94 8 452 6 571 -3z"/>
</g>
</svg>
