<?xml version="1.0" standalone="no"?>
<!DOCTYPE svg PUBLIC "-//W3C//DTD SVG 20010904//EN"
 "http://www.w3.org/TR/2001/REC-SVG-20010904/DTD/svg10.dtd">
<svg version="1.0" xmlns="http://www.w3.org/2000/svg"
 width="144.000000pt" height="144.000000pt" viewBox="0 0 144.000000 144.000000"
 preserveAspectRatio="xMidYMid meet">
<g transform="translate(0.000000,144.000000) scale(0.014063,-0.014063)"
fill="#000000" stroke="none">
<path d="M6625 8449 c-46 -11 -91 -50 -114 -99 -14 -31 -17 -108 -21 -627 l-5
-591 -96 86 c-519 470 -684 618 -693 627 -233 213 -385 339 -448 371 -103 52
-235 38 -333 -36 -48 -36 -217 -191 -545 -499 -85 -80 -229 -214 -320 -296
-90 -83 -225 -206 -300 -275 -74 -69 -176 -161 -225 -205 -49 -44 -148 -134
-219 -200 -71 -66 -157 -145 -191 -176 -34 -30 -108 -100 -166 -155 -57 -55
-174 -165 -259 -244 -683 -633 -835 -785 -883 -875 -29 -55 -32 -67 -32 -155
0 -79 4 -103 23 -141 36 -72 87 -125 154 -158 61 -31 62 -31 230 -31 l168 0 0
-1525 c0 -1691 -6 -1557 67 -1612 l36 -28 2654 -3 c2629 -2 2654 -2 2692 18
22 11 50 34 63 52 l23 33 3 1532 2 1531 168 4 c158 3 170 5 218 30 129 68 200
217 174 365 -23 136 -53 173 -414 505 -143 133 -334 309 -423 392 l-163 150 0
1037 c0 1122 2 1089 -53 1147 -52 56 -56 57 -407 59 -181 1 -343 -3 -365 -8z
m545 -1422 l0 -539 -130 122 -130 122 2 422 3 421 105 5 c58 3 115 1 128 -4
l22 -9 0 -540z m-1985 336 c69 -46 243 -192 439 -368 105 -93 260 -233 346
-310 503 -450 1177 -1077 1288 -1197 l72 -78 0 -1640 0 -1640 -575 0 -575 0 0
954 0 954 -28 53 c-20 39 -38 58 -71 76 l-44 23 -916 0 c-909 0 -916 0 -950
-21 -19 -11 -43 -30 -53 -42 -49 -57 -48 -32 -48 -890 0 -442 -3 -872 -7 -955
l-6 -152 -569 0 -568 0 0 1620 c0 1389 2 1625 14 1649 17 32 429 431 816 791
145 135 334 310 420 390 475 443 798 733 869 780 55 37 94 38 146 3z m468
-4325 c3 -359 3 -710 0 -780 l-6 -128 -533 0 -534 0 0 780 0 780 533 0 534 0
6 -652z"/>
<path d="M4566 5893 c-3 -21 -6 -126 -6 -233 1 -146 4 -199 14 -212 12 -17 50
-18 548 -18 402 0 537 3 546 12 9 9 12 78 12 250 l0 238 -554 0 -553 0 -7 -37z"/>
<path d="M4560 4946 c0 -208 2 -236 18 -255 l17 -21 540 2 540 3 3 253 2 252
-560 0 -560 0 0 -234z"/>
</g>
</svg>
