<?xml version="1.0" standalone="no"?>
<!DOCTYPE svg PUBLIC "-//W3C//DTD SVG 20010904//EN"
 "http://www.w3.org/TR/2001/REC-SVG-20010904/DTD/svg10.dtd">
<svg version="1.0" xmlns="http://www.w3.org/2000/svg"
 width="144.000000pt" height="144.000000pt" viewBox="0 0 144.000000 144.000000"
 preserveAspectRatio="xMidYMid meet">
<g transform="translate(0.000000,144.000000) scale(0.014063,-0.014063)"
fill="#000000" stroke="none">
<path d="M4020 9405 c-164 -37 -300 -94 -421 -176 -77 -52 -209 -178 -250
-238 l-34 -50 -157 -1 c-96 0 -186 -6 -235 -15 -199 -38 -403 -123 -556 -232
-107 -76 -250 -220 -311 -313 -52 -79 -134 -244 -160 -322 -28 -84 -56 -244
-63 -355 l-6 -108 -77 -72 c-219 -205 -350 -502 -350 -793 l0 -88 -49 -36
c-57 -42 -166 -156 -208 -217 -149 -217 -233 -509 -220 -764 10 -187 46 -322
133 -499 l54 -109 -33 -61 c-96 -176 -145 -357 -154 -568 -18 -436 182 -854
532 -1113 l75 -56 0 -83 c0 -161 81 -387 202 -563 65 -95 187 -218 295 -297
l81 -60 6 -63 c8 -79 46 -202 97 -311 155 -335 470 -576 837 -638 71 -12 131
-15 226 -11 l131 5 50 -47 c61 -55 196 -146 281 -189 91 -46 257 -101 358
-119 120 -21 335 -21 451 0 176 32 348 101 491 199 l80 55 75 -49 c148 -99
323 -171 492 -203 106 -21 344 -21 454 -1 236 43 448 142 633 297 l65 54 130
-3 c395 -11 754 159 968 459 99 139 175 335 192 492 l7 68 71 46 c98 66 233
197 306 300 127 178 197 366 208 556 l6 108 51 37 c269 197 448 486 522 842
25 118 25 382 1 503 -24 119 -67 240 -119 339 l-44 83 53 104 c92 180 133 351
133 551 0 305 -111 594 -308 802 -39 40 -95 91 -126 113 l-56 40 0 90 c0 229
-84 487 -212 658 -27 37 -85 100 -129 140 l-79 72 0 108 c0 293 -130 593 -358
829 -207 214 -477 352 -778 398 -43 7 -140 12 -215 11 l-137 -1 -40 54 c-142
187 -352 327 -587 392 -94 26 -112 28 -310 28 -186 0 -219 -2 -288 -22 -202
-56 -350 -140 -499 -283 l-87 -84 -82 84 c-135 137 -280 221 -480 277 -82 23
-117 27 -279 30 -137 3 -202 0 -250 -11z m428 -385 c198 -56 348 -176 430
-345 67 -137 63 62 60 -2552 l-3 -2368 -23 -65 c-40 -111 -90 -190 -176 -275
-270 -269 -710 -271 -977 -5 -123 123 -182 268 -182 450 0 143 30 237 119 378
l34 52 52 -26 c130 -66 292 -101 413 -90 240 23 406 151 367 285 -34 113 -141
151 -272 96 -72 -30 -126 -32 -216 -4 -185 56 -342 205 -404 382 -34 96 -38
241 -11 342 32 117 75 189 163 277 116 116 228 165 423 187 101 12 141 33 176
95 34 61 29 119 -24 289 -84 268 -94 373 -47 501 18 46 42 79 111 151 48 51
91 105 95 120 3 14 4 47 1 71 -13 122 -168 191 -288 128 -81 -41 -185 -167
-239 -288 -52 -117 -65 -187 -65 -351 1 -144 2 -154 34 -240 51 -140 52 -129
-21 -149 -82 -23 -210 -83 -286 -135 -211 -143 -346 -342 -410 -606 -26 -107
-23 -306 7 -415 32 -120 77 -222 136 -311 l52 -77 -53 -68 c-63 -81 -145 -235
-179 -335 -28 -82 -55 -214 -55 -269 0 -22 -7 -45 -16 -54 -32 -32 -205 -12
-296 35 -54 28 -134 103 -165 157 -68 116 -82 266 -37 398 23 66 25 81 15 114
-14 48 -57 85 -120 104 -114 34 -189 100 -255 226 -94 180 -98 368 -11 555 88
190 269 332 472 371 123 23 151 33 188 65 76 67 78 198 3 265 -47 44 -89 58
-168 57 -133 -1 -306 -63 -468 -166 -40 -26 -76 -47 -80 -47 -10 0 -237 249
-295 323 -26 34 -69 105 -94 157 -42 85 -48 103 -53 185 -3 49 -12 100 -18
112 -34 62 9 251 88 384 45 76 154 183 236 231 99 58 99 56 99 301 0 206 1
214 29 297 33 100 55 144 109 225 93 138 229 250 400 330 116 54 225 83 350
91 l97 7 0 -104 c0 -80 5 -113 19 -144 33 -72 86 -105 166 -105 120 0 184 77
185 221 0 107 14 173 57 259 82 170 271 298 501 340 73 14 238 3 320 -20z
m1750 0 c190 -53 342 -171 417 -324 41 -82 55 -149 55 -253 0 -123 43 -192
137 -219 63 -18 115 -8 164 33 53 45 69 93 69 212 l0 104 97 -7 c417 -31 764
-301 869 -676 15 -53 19 -103 19 -270 0 -239 0 -239 98 -291 34 -18 87 -58
118 -88 168 -169 262 -510 174 -638 -31 -46 -33 -105 -5 -151 14 -23 42 -43
95 -68 102 -49 183 -110 250 -191 63 -76 135 -214 162 -313 24 -90 24 -296 -1
-400 -23 -96 -102 -262 -153 -320 -62 -71 -73 -92 -73 -135 0 -43 13 -67 70
-130 118 -131 190 -375 177 -604 -15 -279 -142 -538 -339 -697 l-51 -40 -76
76 c-115 116 -264 194 -465 245 -103 26 -99 17 -66 135 12 43 23 123 27 188
l6 114 77 76 c149 151 246 310 291 482 28 106 37 299 19 408 -55 344 -269 624
-593 777 -157 75 -320 108 -407 85 -130 -34 -186 -167 -119 -277 33 -53 86
-83 171 -95 245 -33 464 -210 546 -440 31 -88 41 -244 22 -341 -22 -114 -90
-234 -174 -310 -41 -36 -77 -55 -140 -74 -72 -21 -113 -55 -126 -104 -12 -43
-10 -53 26 -146 19 -48 24 -80 24 -145 -1 -249 -174 -428 -414 -428 -116 0
-112 -4 -119 108 -4 53 -18 140 -32 192 -31 115 -116 294 -179 374 -25 33 -46
63 -46 68 0 5 24 48 53 96 140 233 182 493 117 742 -86 333 -356 607 -690 699
-40 11 -74 22 -76 24 -2 2 8 32 23 67 84 209 81 469 -7 666 -87 194 -239 318
-368 300 -94 -13 -164 -88 -164 -175 0 -64 11 -83 102 -171 93 -91 119 -148
127 -281 7 -112 -7 -192 -68 -370 -27 -81 -49 -164 -49 -185 1 -85 73 -177
147 -187 21 -4 65 -9 98 -12 263 -28 496 -227 560 -480 17 -68 19 -209 4 -275
-30 -132 -145 -296 -262 -371 -129 -83 -256 -103 -369 -56 -116 48 -214 31
-264 -46 -30 -45 -37 -88 -24 -136 16 -59 52 -96 133 -136 190 -94 446 -85
650 23 29 15 55 28 59 30 12 6 87 -141 115 -223 23 -71 26 -95 26 -210 0 -114
-3 -139 -26 -203 -80 -227 -253 -374 -507 -427 -335 -70 -677 126 -798 457
l-27 73 -3 2375 c-2 1691 1 2390 9 2428 6 29 29 90 52 135 88 176 286 313 501
348 79 12 242 2 324 -21z m-4654 -2843 c40 -85 258 -305 328 -332 112 -42 228
28 246 149 l7 45 53 -65 53 -65 -69 -73 c-122 -128 -207 -274 -258 -441 -26
-85 -28 -101 -28 -275 0 -173 2 -191 27 -273 57 -185 168 -363 298 -479 l69
-61 0 -73 c0 -78 20 -199 46 -277 9 -27 14 -50 11 -53 -2 -3 -41 -14 -87 -24
-196 -47 -393 -161 -490 -282 l-38 -49 -59 49 c-172 143 -287 339 -335 572
-16 77 -19 118 -14 215 10 215 71 381 199 538 39 49 47 64 47 100 0 44 -7 57
-81 154 -190 250 -220 590 -79 888 30 63 106 175 118 174 4 0 20 -28 36 -62z
m1152 -2686 c171 -69 200 -75 392 -76 l174 -1 32 -61 c105 -196 283 -369 471
-459 274 -131 585 -148 855 -47 84 31 157 73 248 140 l72 53 0 -753 c0 -678
-2 -758 -17 -803 -51 -149 -334 -284 -596 -284 -196 0 -413 69 -525 168 l-43
37 349 341 c191 188 365 366 386 397 40 58 53 111 42 172 -9 49 -78 119 -133
135 -90 27 -76 38 -539 -418 -300 -295 -436 -423 -466 -436 -54 -25 -209 -33
-305 -16 -259 45 -471 237 -563 509 l-21 65 21 65 c38 113 87 189 184 286 50
50 105 98 123 108 l32 17 35 -52 c101 -153 312 -368 401 -409 105 -49 226 9
256 121 22 83 10 109 -110 234 -161 168 -265 317 -301 428 -27 86 -125 128
-243 103 -212 -44 -420 -194 -574 -412 l-50 -73 -72 50 c-39 28 -96 81 -127
118 -62 75 -134 214 -160 310 -17 60 -17 65 0 120 29 91 55 133 121 198 115
113 286 177 455 170 83 -3 108 -9 196 -45z m5259 15 c165 -56 280 -147 340
-269 48 -98 52 -130 25 -218 -36 -120 -100 -235 -179 -322 -35 -38 -141 -117
-159 -117 -5 0 -24 23 -42 51 -99 153 -286 303 -480 385 -163 68 -242 73 -296
19 -20 -20 -24 -34 -24 -87 0 -35 7 -94 15 -133 19 -88 43 -114 153 -159 112
-47 167 -80 231 -140 107 -102 200 -265 201 -353 0 -23 -11 -71 -24 -107 -78
-216 -242 -373 -471 -453 -71 -24 -94 -27 -210 -28 -108 0 -136 3 -165 19 -19
10 -129 111 -245 225 -592 582 -566 560 -681 561 -84 0 -140 -30 -173 -94 -23
-44 -23 -50 -12 -104 l13 -57 366 -362 c353 -347 366 -362 347 -377 -45 -35
-246 -128 -330 -152 -285 -82 -673 -1 -809 169 l-31 39 -3 800 -2 800 47 -36
c117 -89 251 -153 402 -193 136 -37 351 -38 491 -4 305 76 562 274 714 552
l36 66 53 -9 c28 -4 97 -8 152 -9 119 0 199 19 360 86 l110 46 100 -4 c74 -3
121 -11 180 -31z"/>
<path d="M4010 7991 c-127 -36 -207 -82 -308 -176 -119 -110 -208 -266 -219
-387 -5 -45 -1 -65 16 -100 43 -90 148 -130 239 -93 56 24 80 52 127 150 52
108 94 159 168 203 48 29 70 35 144 41 101 9 116 15 166 70 78 87 52 221 -56
282 -58 32 -185 37 -277 10z"/>
<path d="M2871 7885 c-107 -30 -239 -120 -313 -213 -116 -146 -171 -369 -139
-558 41 -233 227 -469 459 -581 103 -49 173 -55 245 -19 68 33 108 87 115 155
10 104 -42 170 -176 221 -235 90 -342 341 -222 522 41 62 87 95 178 129 117
44 157 93 150 185 -11 125 -150 199 -297 159z"/>
<path d="M5988 7998 c-43 -11 -105 -68 -124 -114 -19 -46 -17 -108 5 -152 35
-68 93 -102 175 -102 31 0 80 -9 113 -21 76 -28 165 -117 223 -223 24 -43 58
-92 76 -110 87 -85 232 -70 290 31 24 39 26 52 22 112 -6 86 -62 205 -140 301
-167 203 -454 328 -640 278z"/>
<path d="M7250 7891 c-151 -32 -210 -192 -112 -303 8 -10 52 -29 97 -43 130
-39 199 -111 226 -233 29 -137 -76 -329 -213 -391 -24 -11 -73 -33 -110 -49
-59 -27 -70 -37 -97 -84 -55 -95 -32 -201 57 -263 38 -26 53 -30 110 -30 57 0
79 6 146 38 103 49 199 120 283 211 83 89 125 158 172 279 33 87 35 99 35 217
1 179 -33 291 -129 418 -112 148 -334 260 -465 233z"/>
</g>
</svg>
