<?xml version="1.0" standalone="no"?>
<!DOCTYPE svg PUBLIC "-//W3C//DTD SVG 20010904//EN"
 "http://www.w3.org/TR/2001/REC-SVG-20010904/DTD/svg10.dtd">
<svg version="1.0" xmlns="http://www.w3.org/2000/svg"
 width="144.000000pt" height="144.000000pt" viewBox="0 0 144.000000 144.000000"
 preserveAspectRatio="xMidYMid meet">
<g transform="translate(0.000000,144.000000) scale(0.014063,-0.014063)"
fill="#000000" stroke="none">
<path d="M5100 8098 c-17 -80 -36 -225 -70 -533 -69 -618 -127 -964 -190
-1129 l-11 -29 -21 39 c-11 21 -51 82 -88 134 -162 229 -317 475 -578 916 -75
127 -144 242 -153 255 -28 41 -35 11 -12 -54 29 -82 108 -353 178 -612 31
-115 84 -309 117 -430 34 -121 68 -254 76 -297 l15 -76 -25 -30 -25 -30 -34
21 c-227 139 -437 282 -604 411 -128 99 -357 287 -445 366 -118 106 -243 210
-252 210 -4 0 -8 -6 -8 -13 0 -10 245 -324 447 -572 176 -216 467 -620 522
-722 20 -38 -1 -63 -52 -63 -79 0 -352 49 -527 94 -215 55 -727 217 -925 292
l-20 7 20 -23 c52 -59 151 -124 610 -398 278 -166 444 -268 594 -365 104 -68
121 -83 107 -92 -28 -21 -347 -71 -626 -99 -298 -31 -866 -101 -979 -122 -77
-14 -128 -31 -119 -39 4 -4 468 -60 663 -80 272 -27 553 -65 710 -96 141 -28
375 -85 384 -95 8 -7 -27 -30 -254 -166 -121 -72 -274 -164 -340 -203 -66 -40
-221 -132 -345 -205 -250 -148 -400 -246 -400 -260 0 -15 10 -13 79 15 127 52
531 165 856 240 222 51 577 106 591 92 9 -9 -37 -97 -143 -272 -123 -205 -203
-312 -348 -468 -212 -227 -371 -406 -446 -504 -72 -93 -86 -138 -26 -84 64 58
85 76 285 235 470 373 537 419 925 637 75 43 138 75 138 71 2 -11 2 -12 -31
-138 -17 -65 -51 -240 -76 -389 -47 -279 -72 -392 -128 -580 -39 -128 -52
-195 -38 -195 5 0 33 46 63 101 95 181 336 564 465 739 91 122 225 304 229
308 6 6 55 -156 80 -260 46 -196 84 -473 149 -1082 31 -288 46 -368 60 -325 9
25 25 148 61 464 77 678 118 921 186 1133 12 35 25 62 29 60 13 -5 142 -171
255 -328 109 -152 380 -591 446 -722 39 -78 53 -95 63 -79 3 4 -15 80 -40 167
-62 219 -89 346 -119 552 -33 224 -84 459 -121 555 -11 29 19 19 137 -46 375
-209 480 -282 880 -608 214 -175 358 -289 364 -289 42 0 -163 257 -396 495
-220 225 -320 356 -472 612 -81 138 -130 233 -123 241 12 11 245 -18 417 -53
323 -65 839 -206 1040 -285 55 -22 69 -24 69 -12 0 16 -254 179 -595 382 -606
361 -745 445 -745 451 0 8 168 55 300 83 174 38 418 70 900 121 400 42 560 61
567 69 13 12 -43 29 -153 46 -144 22 -615 78 -919 110 -315 33 -643 85 -663
105 -4 4 5 17 20 28 57 45 388 253 783 490 386 233 513 316 522 344 2 6 -80
-18 -184 -54 -194 -67 -616 -195 -783 -238 -122 -31 -282 -62 -390 -75 -47 -5
-100 -13 -118 -16 -28 -4 -33 -1 -42 21 -7 19 -6 33 4 53 18 35 218 315 322
452 44 58 111 146 149 195 37 50 147 188 244 308 207 256 260 327 261 345 0
21 -25 2 -180 -133 -80 -69 -188 -163 -240 -209 -278 -242 -404 -335 -759
-555 l-165 -102 -28 28 -27 28 75 300 c95 380 169 647 307 1108 19 63 18 92
-2 71 -5 -5 -78 -126 -162 -269 -271 -464 -413 -688 -568 -895 -39 -52 -82
-116 -95 -142 l-24 -48 -16 39 c-52 132 -130 606 -186 1131 -35 331 -73 570
-90 570 -5 0 -13 -24 -20 -52z m239 -1864 c292 -52 549 -207 725 -437 373
-490 282 -1169 -209 -1553 -215 -167 -469 -254 -745 -254 -681 0 -1216 578
-1150 1240 28 270 120 474 303 667 268 282 671 408 1076 337z"/>
<path d="M4945 6068 c-199 -37 -395 -139 -533 -275 -82 -82 -141 -167 -193
-278 -217 -464 -10 -1022 465 -1250 161 -77 222 -90 436 -90 207 0 244 7 397
73 220 95 381 246 492 465 72 141 95 246 95 422 -1 111 -5 157 -23 220 -27
102 -106 261 -170 345 -134 176 -358 312 -596 361 -98 20 -282 24 -370 7z
m361 -92 c333 -71 598 -318 685 -641 30 -110 30 -297 1 -405 -108 -402 -462
-673 -877 -673 -183 0 -346 49 -496 149 -152 101 -231 193 -309 358 -65 138
-83 215 -83 356 0 228 69 405 224 581 126 142 346 257 554 289 75 11 210 5
301 -14z"/>
</g>
</svg>
