<?xml version="1.0" standalone="no"?>
<!DOCTYPE svg PUBLIC "-//W3C//DTD SVG 20010904//EN"
 "http://www.w3.org/TR/2001/REC-SVG-20010904/DTD/svg10.dtd">
<svg version="1.0" xmlns="http://www.w3.org/2000/svg"
 width="144.000000pt" height="144.000000pt" viewBox="0 0 144.000000 144.000000"
 preserveAspectRatio="xMidYMid meet">
<g transform="translate(0.000000,144.000000) scale(0.014063,-0.014063)"
fill="#000000" stroke="none">
<path d="M4840 9041 c-128 -19 -163 -26 -285 -60 -277 -77 -499 -193 -705
-367 -137 -115 -262 -262 -375 -439 -40 -63 -155 -288 -155 -303 0 -5 -13 -43
-29 -83 -42 -108 -74 -235 -103 -399 -18 -102 -17 -580 0 -720 58 -452 142
-858 214 -1035 92 -227 250 -440 452 -610 204 -172 351 -259 546 -324 36 -12
74 -26 85 -31 11 -5 31 -11 45 -13 44 -8 184 -37 225 -47 22 -5 115 -14 208
-20 444 -28 873 66 1158 253 214 140 297 211 426 361 222 259 321 481 392 876
12 63 25 138 31 165 38 188 90 698 90 883 0 119 -38 388 -71 507 -52 182 -142
395 -217 510 -15 22 -33 49 -40 60 -36 57 -55 83 -130 173 -44 54 -114 127
-154 163 -40 35 -82 72 -93 82 -52 47 -254 182 -310 206 -11 5 -54 24 -95 43
-168 77 -361 136 -535 163 -165 26 -422 28 -575 6z m480 -567 c170 -35 297
-78 435 -147 275 -137 500 -385 606 -668 65 -174 99 -362 99 -552 0 -216 -44
-642 -85 -822 -9 -38 -23 -100 -31 -137 -20 -92 -71 -246 -95 -286 -10 -18
-19 -38 -19 -43 0 -6 -13 -30 -30 -54 -16 -24 -30 -46 -30 -50 0 -3 -19 -34
-42 -68 -47 -71 -172 -198 -238 -244 -108 -74 -258 -149 -355 -177 -33 -10
-71 -22 -85 -26 -85 -28 -147 -34 -335 -34 -209 0 -262 8 -435 64 -225 73
-457 248 -582 438 -87 134 -175 340 -214 502 -8 36 -20 76 -25 90 -9 24 -15
58 -59 307 -21 117 -40 375 -40 549 0 101 23 301 38 332 5 10 15 44 22 77 13
63 63 191 112 289 51 102 140 219 235 309 51 48 166 137 178 137 3 0 21 11 38
24 18 13 75 44 127 69 125 60 218 91 385 126 71 16 343 12 425 -5z"/>
<path d="M3685 4964 c-27 -8 -63 -19 -80 -23 -16 -5 -64 -20 -105 -33 -41 -14
-95 -31 -120 -38 -25 -7 -70 -21 -100 -30 -30 -10 -116 -37 -190 -60 -74 -24
-144 -46 -155 -51 -11 -5 -47 -18 -80 -29 -70 -25 -65 -23 -215 -93 -272 -128
-553 -340 -749 -567 -136 -158 -291 -409 -359 -585 -13 -33 -28 -69 -32 -80
-17 -40 -61 -196 -79 -275 -67 -311 -73 -409 -69 -1230 l3 -715 3753 -3 3753
-2 -3 837 c-4 826 -4 840 -26 953 -30 151 -45 213 -82 335 -12 39 -27 84 -35
100 -7 17 -23 54 -34 83 -139 353 -445 726 -791 964 -253 175 -438 257 -920
408 -58 18 -186 60 -284 92 -98 32 -188 58 -199 56 -14 -2 -24 -17 -35 -53
-29 -95 -262 -800 -271 -820 -4 -11 -14 -38 -20 -60 -13 -43 -18 -55 -50 -127
-12 -26 -21 -50 -21 -53 0 -3 -9 -27 -21 -53 -12 -26 -24 -56 -28 -67 -4 -11
-21 -47 -37 -80 l-30 -60 -142 -3 c-165 -3 -151 14 -122 -147 11 -61 24 -148
30 -195 5 -47 17 -121 25 -165 9 -44 22 -125 30 -180 8 -55 19 -125 25 -155 6
-30 16 -86 23 -124 7 -38 18 -71 25 -74 7 -2 12 5 12 15 0 10 10 34 21 53 12
19 57 107 101 195 43 88 83 167 88 175 30 47 162 300 201 385 113 245 132 288
159 360 12 33 26 69 30 80 5 11 12 31 15 45 7 22 19 53 46 115 17 40 122 361
139 430 18 68 19 70 49 69 17 -1 52 -11 76 -23 25 -12 48 -21 52 -21 5 -1 26
-9 48 -20 22 -11 44 -19 49 -20 4 0 73 -31 153 -70 426 -206 689 -432 909
-780 88 -140 186 -375 225 -540 48 -203 49 -216 49 -811 0 -503 -2 -568 -16
-573 -8 -3 -549 -5 -1202 -3 l-1187 2 -7 40 c-3 22 -16 90 -27 150 -12 61 -26
142 -32 180 -11 75 -21 138 -39 250 -7 39 -15 95 -20 125 -7 49 -34 210 -60
373 -23 133 -31 189 -50 318 -11 75 -22 143 -25 150 -3 8 -16 89 -30 181 -14
92 -29 178 -35 192 l-10 26 -179 0 c-134 0 -180 -3 -182 -12 -2 -7 -2 -449 1
-983 3 -545 1 -975 -4 -982 -12 -19 -120 -17 -136 2 -9 11 -10 226 -4 968 4
525 4 966 0 981 l-6 26 -174 0 -174 0 -11 -32 c-7 -18 -19 -80 -27 -138 -21
-139 -47 -291 -99 -575 -8 -44 -28 -168 -45 -275 -38 -249 -47 -305 -66 -415
-8 -49 -20 -119 -25 -155 -18 -111 -28 -173 -39 -235 -6 -33 -13 -81 -16 -106
-6 -46 -6 -47 -52 -53 -24 -3 -571 -6 -1214 -6 -1104 0 -1169 1 -1176 18 -4 9
-7 256 -6 547 0 456 3 547 18 649 19 130 72 328 105 396 12 24 21 48 21 53 0
32 165 318 232 402 4 5 24 30 44 55 105 131 306 312 459 414 99 66 346 193
460 236 66 25 119 47 150 60 11 5 42 16 69 25 60 19 67 14 85 -65 7 -30 22
-82 32 -115 34 -109 91 -279 106 -320 8 -22 24 -65 35 -95 11 -30 29 -74 39
-97 11 -24 19 -45 19 -48 0 -13 79 -176 307 -635 135 -272 251 -505 256 -517
6 -13 14 -23 18 -23 10 0 12 8 34 145 31 188 35 215 46 278 6 34 14 80 19 102
5 22 13 72 20 110 6 39 17 108 26 155 21 120 35 240 29 249 -2 5 -67 6 -144 3
l-139 -5 -31 61 c-32 63 -142 334 -168 412 -8 25 -20 59 -28 75 -7 17 -16 41
-20 55 -3 14 -10 34 -15 45 -5 11 -20 53 -33 93 -14 40 -27 76 -31 79 -3 4 -6
16 -6 28 0 11 -4 25 -9 31 -5 5 -21 50 -36 99 -15 50 -36 119 -47 155 -11 36
-24 79 -28 95 -25 87 -53 155 -63 154 -7 0 -34 -7 -62 -15z"/>
</g>
</svg>
