<?xml version="1.0" standalone="no"?>
<!DOCTYPE svg PUBLIC "-//W3C//DTD SVG 20010904//EN"
 "http://www.w3.org/TR/2001/REC-SVG-20010904/DTD/svg10.dtd">
<svg version="1.0" xmlns="http://www.w3.org/2000/svg"
 width="144.000000pt" height="144.000000pt" viewBox="0 0 144.000000 144.000000"
 preserveAspectRatio="xMidYMid meet">
<g transform="translate(0.000000,144.000000) scale(0.014063,-0.014063)"
fill="#000000" stroke="none">
<path d="M5050 9082 l0 -198 -197 -18 c-360 -32 -627 -87 -945 -195 -210 -71
-236 -82 -409 -164 -608 -289 -1138 -738 -1511 -1282 -271 -395 -480 -906
-558 -1358 -52 -304 -65 -681 -35 -975 84 -811 439 -1554 1025 -2143 425 -428
903 -724 1495 -929 178 -61 583 -159 615 -148 6 2 -169 174 -387 383 -219 208
-399 382 -401 385 -1 3 75 80 170 170 344 326 633 604 636 611 1 3 -46 23
-105 44 -338 116 -630 300 -871 549 -406 419 -607 934 -589 1505 24 761 469
1437 1182 1794 253 126 476 189 832 232 l53 7 2 -314 3 -313 145 140 c80 77
381 365 669 640 l524 499 -115 111 c-62 60 -258 247 -433 415 -176 167 -421
401 -543 520 -123 118 -230 219 -238 223 -12 7 -14 -23 -14 -191z"/>
<path d="M5792 8829 c3 -8 102 -103 616 -593 127 -121 232 -225 232 -229 0 -9
-135 -141 -530 -517 -129 -123 -235 -228 -235 -233 0 -5 52 -28 115 -52 655
-241 1163 -791 1330 -1439 43 -169 59 -279 66 -456 20 -502 -156 -998 -493
-1391 -360 -419 -859 -687 -1403 -755 -63 -8 -124 -14 -137 -14 l-23 0 -2 281
-3 281 -267 -253 c-147 -140 -444 -423 -662 -629 -217 -206 -395 -380 -395
-385 -1 -6 216 -218 481 -470 264 -253 563 -538 662 -633 l181 -173 5 223 5
223 50 3 c537 27 1081 170 1560 409 214 108 332 178 517 310 488 348 873 790
1139 1307 213 414 335 827 379 1283 13 143 14 496 0 633 -63 623 -271 1190
-627 1705 -197 285 -491 592 -783 817 -479 368 -1068 626 -1683 738 -54 10
-97 14 -95 9z"/>
</g>
</svg>
