<?xml version="1.0" standalone="no"?>
<!DOCTYPE svg PUBLIC "-//W3C//DTD SVG 20010904//EN"
 "http://www.w3.org/TR/2001/REC-SVG-20010904/DTD/svg10.dtd">
<svg version="1.0" xmlns="http://www.w3.org/2000/svg"
 width="144.000000pt" height="144.000000pt" viewBox="0 0 144.000000 144.000000"
 preserveAspectRatio="xMidYMid meet">
<g transform="translate(0.000000,144.000000) scale(0.014063,-0.014063)"
fill="#000000" stroke="none">
<path d="M4980 9324 c-101 -21 -221 -85 -301 -162 -123 -115 -185 -252 -196
-434 l-6 -96 -131 -4 c-119 -3 -136 -5 -188 -31 -75 -37 -160 -128 -187 -202
-12 -31 -21 -64 -21 -74 0 -10 -3 -33 -6 -50 l-6 -31 -734 0 c-700 0 -736 -1
-784 -19 -101 -39 -187 -133 -221 -243 -18 -57 -19 -182 -19 -3336 0 -2071 3
-3289 9 -3310 26 -90 104 -176 200 -221 l56 -26 2582 -3 2582 -2 55 21 c60 22
151 98 185 152 10 18 26 54 36 82 15 46 16 289 15 3319 -1 3162 -1 3270 -19
3321 -36 101 -105 180 -204 233 l-52 27 -666 3 -666 3 -6 52 c-14 118 -115
249 -234 305 -52 24 -72 27 -185 30 l-128 4 0 78 c0 101 -14 168 -55 255 -126
273 -417 421 -705 359z m264 -328 c61 -30 124 -93 157 -158 16 -31 24 -66 27
-124 4 -73 1 -88 -22 -140 -33 -71 -94 -136 -161 -172 -68 -36 -187 -38 -256
-4 -74 36 -125 87 -161 160 -29 58 -33 77 -33 143 0 65 5 85 33 142 80 162
261 229 416 153z m-577 -754 c235 -234 568 -254 838 -49 33 25 75 63 93 86
l33 41 150 0 151 0 34 -34 c30 -30 34 -41 35 -88 1 -58 1 -344 0 -505 l-1
-103 -885 0 -885 0 0 320 c0 267 3 326 15 350 26 51 55 59 207 60 l137 0 78
-78z m-722 -544 c0 -231 1 -245 22 -284 28 -53 82 -100 130 -114 27 -8 335
-10 1038 -8 l1000 3 48 28 c33 19 56 44 77 80 l30 52 0 243 0 242 616 0 c403
0 622 -4 635 -10 52 -29 49 190 49 -3254 0 -2231 -3 -3193 -11 -3213 -6 -15
-20 -38 -31 -51 l-21 -22 -2487 0 -2487 0 -26 24 c-14 13 -29 35 -32 48 -3 12
-4 1462 -3 3221 l3 3199 33 29 32 29 693 0 692 0 0 -242z"/>
<path d="M3010 6958 c-18 -13 -47 -40 -64 -61 l-31 -39 -3 -446 c-1 -246 0
-457 3 -470 8 -32 74 -103 112 -119 47 -19 869 -19 916 0 44 19 105 89 112
129 3 18 5 229 3 469 l-3 436 -28 40 c-15 22 -45 49 -66 61 -38 22 -45 22
-478 22 -440 0 -440 0 -473 -22z m760 -563 l0 -295 -290 0 -290 0 0 295 0 295
290 0 290 0 0 -295z"/>
<path d="M4514 6691 c-106 -48 -118 -194 -22 -263 l33 -23 1277 0 c1274 0
1277 0 1304 21 51 38 69 71 69 129 0 61 -21 98 -76 130 -33 20 -54 20 -1289
22 -1207 3 -1257 2 -1296 -16z"/>
<path d="M4500 5811 c-47 -25 -83 -93 -77 -144 6 -48 29 -82 70 -107 31 -19
61 -20 1305 -20 1397 0 1306 -4 1352 60 32 45 36 89 12 144 -17 37 -30 51 -64
66 -42 19 -76 20 -1303 20 -1209 0 -1262 -1 -1295 -19z"/>
<path d="M3019 5637 c-24 -13 -57 -43 -74 -66 l-30 -43 -3 -449 c-2 -427 -2
-450 17 -486 22 -44 53 -74 98 -97 28 -14 85 -16 455 -16 420 0 424 0 468 23
24 12 58 39 74 60 l31 39 3 441 c2 297 0 454 -8 479 -14 48 -53 94 -101 118
-36 19 -61 20 -462 20 l-424 0 -44 -23z m749 -574 l-3 -298 -287 -3 -288 -2 0
293 c0 162 3 297 7 300 3 4 134 7 290 7 l283 0 -2 -297z"/>
<path d="M4515 4906 c-41 -18 -83 -69 -91 -111 -7 -42 9 -95 39 -123 58 -54
-6 -52 1340 -52 l1243 0 44 23 c80 40 108 135 62 210 -45 72 51 67 -1349 67
-1023 -1 -1264 -3 -1288 -14z"/>
<path d="M3019 4297 c-24 -13 -57 -43 -74 -66 l-30 -43 0 -462 0 -462 27 -41
c16 -24 44 -49 70 -62 43 -20 57 -21 469 -21 421 0 425 0 469 23 24 12 58 39
74 60 l31 39 3 454 c2 405 1 457 -14 486 -23 46 -53 77 -96 99 -35 18 -64 19
-461 19 l-424 0 -44 -23z m751 -582 l0 -295 -290 0 -290 0 0 295 0 295 290 0
290 0 0 -295z"/>
<path d="M4474 3986 c-40 -40 -44 -48 -44 -93 0 -61 29 -110 80 -135 33 -17
115 -18 1295 -18 1208 0 1262 1 1295 19 19 10 45 36 57 57 39 68 26 135 -37
188 l-32 26 -1285 0 -1286 0 -43 -44z"/>
<path d="M4526 3260 c-115 -35 -136 -195 -33 -259 34 -21 35 -21 1307 -21
l1272 0 35 21 c37 23 72 85 73 127 0 45 -39 102 -83 123 -41 18 -84 19 -1292
18 -687 0 -1263 -5 -1279 -9z"/>
</g>
</svg>
