<?xml version="1.0" standalone="no"?>
<!DOCTYPE svg PUBLIC "-//W3C//DTD SVG 20010904//EN"
 "http://www.w3.org/TR/2001/REC-SVG-20010904/DTD/svg10.dtd">
<svg version="1.0" xmlns="http://www.w3.org/2000/svg"
 width="144.000000pt" height="144.000000pt" viewBox="0 0 144.000000 144.000000"
 preserveAspectRatio="xMidYMid meet">
<g transform="translate(0.000000,144.000000) scale(0.014063,-0.014063)"
fill="#000000" stroke="none">
<path d="M4765 8407 c-18 -28 -51 -243 -76 -500 -10 -105 -14 -120 -33 -128
-11 -5 -86 -25 -166 -43 -80 -19 -183 -49 -230 -66 -47 -18 -93 -34 -104 -37
-19 -6 -45 19 -201 193 -44 49 -82 91 -85 94 -3 3 -22 26 -43 52 -46 58 -119
128 -132 128 -6 0 -39 -20 -75 -45 -129 -89 -316 -221 -350 -246 -148 -109
-141 -103 -135 -129 12 -45 81 -200 176 -394 33 -65 59 -131 59 -145 -1 -20
-33 -59 -135 -163 -84 -87 -141 -138 -154 -138 -11 0 -44 14 -73 31 -97 57
-393 216 -415 223 -12 4 -31 3 -41 -3 -20 -11 -105 -137 -243 -363 -124 -204
-129 -212 -129 -229 0 -9 26 -40 58 -68 151 -138 362 -355 362 -374 0 -11 -5
-34 -10 -51 -39 -118 -110 -399 -110 -435 0 -9 -4 -21 -8 -28 -9 -14 -121 -28
-357 -43 -93 -6 -187 -16 -209 -23 -66 -19 -68 -31 -62 -392 3 -189 9 -322 15
-334 20 -36 59 -43 375 -71 120 -10 223 -23 228 -28 6 -6 23 -79 39 -164 25
-137 64 -283 101 -376 13 -33 12 -34 -33 -75 -59 -54 -191 -173 -249 -223 -25
-21 -71 -64 -103 -94 -65 -62 -65 -61 -12 -145 13 -22 33 -56 44 -75 10 -19
49 -84 86 -145 37 -60 86 -141 109 -178 60 -100 93 -137 123 -137 14 0 64 22
112 49 47 27 136 74 196 106 61 31 129 68 152 82 23 13 49 23 57 21 8 -2 76
-68 150 -147 104 -110 136 -150 136 -170 0 -25 -192 -454 -227 -507 -15 -24
-11 -74 6 -74 4 0 65 -43 135 -95 151 -113 273 -198 339 -237 84 -49 88 -47
233 119 178 204 264 293 283 293 9 0 63 -17 121 -39 95 -35 283 -89 368 -106
42 -9 48 -23 61 -165 14 -136 39 -334 52 -406 17 -88 -1 -85 384 -82 l338 3
19 25 c18 25 21 43 78 450 5 41 10 91 10 110 0 50 9 59 76 71 86 15 368 103
416 129 33 19 73 11 98 -18 13 -15 53 -59 89 -97 36 -39 91 -99 121 -134 106
-122 171 -181 199 -181 33 1 88 32 241 140 264 185 325 234 323 258 -2 13 -60
138 -130 278 -120 240 -126 256 -112 278 11 19 139 160 256 283 12 13 30 23
39 23 9 0 91 -41 183 -91 91 -50 191 -105 221 -121 30 -16 59 -34 64 -39 6 -5
24 -9 41 -9 28 0 36 8 90 96 33 53 104 167 157 253 134 217 148 241 148 262 0
15 -328 324 -416 392 -25 20 -31 55 -14 85 17 31 59 170 74 244 8 40 22 117
31 170 10 54 23 102 29 107 6 5 126 21 266 35 264 26 296 32 320 62 21 24 22
656 2 691 -23 41 -60 50 -252 62 -239 16 -328 27 -344 40 -7 6 -18 43 -25 83
-17 98 -35 170 -91 358 -11 36 -20 71 -20 78 0 15 11 26 238 242 212 201 203
178 121 311 -29 46 -58 95 -66 109 -7 14 -62 102 -121 195 -92 145 -112 170
-135 173 -18 2 -68 -18 -149 -59 -197 -99 -312 -160 -322 -170 -6 -5 -24 -9
-41 -9 -25 0 -50 20 -163 134 -87 89 -132 141 -132 156 0 11 39 99 87 193 146
290 163 327 163 357 0 20 -44 57 -189 160 -50 36 -129 92 -174 125 -146 106
-176 125 -195 125 -25 0 -118 -96 -297 -307 -145 -172 -171 -193 -200 -164
-10 9 -168 69 -235 89 -19 6 -79 20 -134 32 -54 11 -106 25 -116 30 -11 6 -19
27 -23 62 -52 454 -61 518 -79 555 l-13 28 -347 3 -347 2 -16 -23z m720 -1257
c55 -12 118 -25 140 -30 47 -10 41 -8 170 -55 178 -65 345 -151 495 -253 206
-141 440 -392 582 -622 48 -78 145 -270 167 -330 8 -19 21 -53 30 -75 10 -22
23 -58 29 -80 6 -22 21 -71 32 -110 58 -195 82 -534 56 -765 -16 -140 -47
-308 -65 -360 -5 -14 -15 -45 -22 -70 -7 -25 -28 -83 -47 -130 -186 -462 -532
-861 -935 -1079 -31 -17 -64 -35 -74 -40 -109 -60 -315 -141 -408 -161 -22 -5
-58 -14 -80 -19 -152 -41 -491 -53 -695 -25 -154 20 -260 47 -409 101 -211 76
-473 228 -647 374 -87 73 -243 236 -319 334 -98 125 -226 360 -287 525 -72
193 -95 292 -123 525 -30 249 -7 579 56 807 11 40 24 90 30 110 30 121 144
359 241 503 74 109 79 116 127 175 193 235 434 432 682 555 63 31 123 62 133
67 47 25 258 91 350 109 204 42 274 48 486 44 161 -3 227 -8 305 -25z"/>
<path d="M4915 6695 c-44 -7 -107 -21 -140 -30 -33 -9 -73 -20 -90 -25 -70
-18 -202 -75 -290 -124 -452 -251 -752 -661 -852 -1166 -20 -102 -25 -156 -25
-295 0 -97 5 -196 12 -230 34 -167 43 -203 74 -293 49 -141 98 -241 172 -353
142 -215 293 -371 479 -493 189 -124 306 -175 555 -242 99 -27 117 -28 315
-28 l210 -1 140 39 c240 66 418 148 585 270 80 58 230 198 292 273 170 205
305 481 347 708 28 155 33 200 32 346 -1 302 -44 475 -189 767 -26 51 -56 105
-68 119 l-21 27 -46 -18 c-55 -21 -101 -70 -135 -145 l-25 -54 45 -86 c48 -90
107 -267 129 -386 18 -92 18 -369 0 -465 -42 -232 -154 -473 -304 -652 -49
-59 -171 -162 -262 -220 -116 -75 -293 -155 -395 -179 -19 -4 -53 -12 -75 -18
-145 -39 -376 -31 -565 18 -458 120 -786 419 -933 851 -144 426 -63 921 210
1281 190 251 454 417 788 495 108 25 358 25 460 0 214 -52 374 -124 516 -229
48 -35 79 -47 79 -29 0 5 33 44 73 87 97 105 102 112 86 131 -42 50 -295 203
-424 256 -234 96 -523 131 -760 93z"/>
<path d="M5085 5460 c-160 -34 -257 -121 -310 -279 -13 -41 -16 -72 -12 -130
16 -219 178 -381 382 -381 79 0 148 23 205 69 65 52 77 67 118 151 70 142 53
297 -46 429 -76 98 -230 163 -337 141z"/>
</g>
</svg>
