<?xml version="1.0" standalone="no"?>
<!DOCTYPE svg PUBLIC "-//W3C//DTD SVG 20010904//EN"
 "http://www.w3.org/TR/2001/REC-SVG-20010904/DTD/svg10.dtd">
<svg version="1.0" xmlns="http://www.w3.org/2000/svg"
 width="144.000000pt" height="144.000000pt" viewBox="0 0 144.000000 144.000000"
 preserveAspectRatio="xMidYMid meet">
<g transform="translate(0.000000,144.000000) scale(0.014063,-0.014063)"
fill="#000000" stroke="none">
<path d="M2808 7828 c-50 -13 -123 -79 -156 -142 l-27 -51 0 -1895 0 -1895 21
-46 c26 -55 77 -108 130 -135 37 -18 71 -19 634 -24 566 -5 595 -6 598 -23 2
-10 1 -29 -2 -42 -6 -22 -10 -23 -134 -27 -115 -3 -134 -6 -185 -31 -31 -16
-74 -48 -96 -74 -43 -48 -81 -135 -81 -183 0 -65 59 -60 -719 -60 l-706 0
-212 -324 -213 -323 0 -111 c0 -100 2 -112 19 -122 14 -7 787 -10 2429 -10
2321 0 2410 1 2425 18 14 15 17 40 17 129 l0 111 -145 207 c-80 114 -145 208
-145 209 0 0 73 1 163 1 186 0 201 5 239 78 20 37 22 57 22 172 0 144 -8 174
-63 237 -55 63 -107 80 -258 86 l-133 5 0 38 0 38 598 3 c549 3 600 4 629 21
52 28 102 77 126 121 l22 41 0 1910 0 1910 -25 49 c-14 27 -43 64 -64 83 -80
68 96 63 -2405 62 -1456 -1 -2279 -5 -2303 -11z m4586 -179 l26 -20 0 -1640
c0 -1576 -1 -1640 -18 -1657 -18 -18 -68 -19 -1054 -25 -570 -4 -1599 -4
-2287 0 l-1251 6 0 1641 c0 1296 3 1646 13 1666 7 13 24 30 37 37 20 10 489
13 2266 13 l2241 0 27 -21z m26 -3649 c0 -136 -1 -142 -25 -166 l-24 -24 -572
2 -571 3 -13 39 c-18 51 -67 100 -114 115 -28 8 -308 11 -997 11 -909 0 -961
-1 -999 -19 -51 -23 -74 -49 -89 -103 l-13 -43 -572 1 -573 1 -21 22 c-20 20
-22 34 -25 158 l-4 136 2274 -5 c1250 -3 2284 -2 2298 3 14 4 28 7 33 8 4 1 7
-62 7 -139z m-1382 -322 c-3 -110 -5 -123 -20 -122 -10 1 -425 2 -923 3 l-905
1 0 120 0 120 925 0 926 0 -3 -122z m459 -318 c35 -21 57 -75 51 -125 l-3 -30
-1427 -3 -1428 -2 0 35 c0 53 25 102 62 125 33 20 47 20 1373 20 1311 0 1341
-1 1372 -20z m-4031 -345 l-58 -45 -144 0 c-79 0 -144 3 -144 7 0 4 17 24 37
45 l37 38 165 0 164 0 -57 -45z m334 0 l-44 -45 -118 0 -118 0 17 26 c34 53
67 64 193 64 l114 0 -44 -45z m480 39 c0 -4 -13 -21 -29 -39 -16 -18 -30 -38
-32 -43 -4 -11 -349 -4 -349 7 1 10 34 46 60 64 21 14 50 17 187 17 90 0 163
-3 163 -6z m258 -14 c1 -8 -7 -30 -18 -47 -19 -32 -21 -33 -90 -33 -67 0 -70
1 -70 24 0 13 9 35 21 50 20 25 26 27 87 24 50 -2 67 -7 70 -18z m462 7 c0 -7
-11 -29 -25 -50 l-26 -37 -159 0 c-148 0 -160 1 -160 18 0 22 35 57 70 71 39
15 300 14 300 -2z m900 3 c0 -16 -39 -90 -48 -91 -30 -4 -210 -5 -219 -1 -22
7 -14 42 16 73 29 29 31 29 140 29 70 0 111 -4 111 -10z m550 5 c0 -3 -15 -26
-32 -50 l-33 -44 -82 -1 c-97 0 -105 11 -51 67 31 32 34 33 115 33 46 0 83 -2
83 -5z m648 -35 c39 -69 43 -67 -165 -72 -104 -2 -194 -2 -200 0 -22 7 -15 36
18 75 l30 37 147 0 147 0 23 -40z m-3721 -146 c6 -19 -48 -76 -92 -95 -32 -15
-65 -19 -168 -19 l-127 0 42 65 43 65 149 -3 c100 -1 151 -6 153 -13z m249
-25 c-20 -22 -41 -51 -46 -65 -9 -21 -15 -24 -64 -24 -46 0 -56 3 -61 20 -4
13 1 31 15 50 35 49 59 60 128 60 l64 0 -36 -41z m374 35 c0 -4 -13 -22 -30
-40 -16 -19 -33 -46 -36 -59 -6 -24 -9 -25 -99 -25 -75 0 -94 3 -99 16 -3 8
-2 23 3 32 12 22 62 68 81 75 21 8 180 8 180 1z m1433 0 c4 -4 -8 -23 -26 -43
-18 -20 -40 -46 -48 -59 -15 -21 -23 -23 -85 -20 -69 3 -69 3 -69 32 0 42 38
65 131 81 43 7 82 13 85 14 3 1 9 -2 12 -5z m-1013 -7 c0 -2 -25 -21 -55 -42
-31 -21 -60 -46 -66 -57 -8 -16 -23 -18 -108 -18 -82 0 -100 3 -105 16 -8 21
27 78 56 92 20 9 278 18 278 9z m298 -26 c-14 -15 -30 -42 -37 -60 l-13 -31
-89 0 -89 0 0 31 c0 20 10 40 29 60 29 28 33 29 126 29 l97 0 -24 -29z m432
25 c0 -3 -25 -30 -56 -60 l-55 -56 -95 0 -94 0 0 33 c0 33 26 67 60 80 18 6
240 9 240 3z m610 -4 c0 -4 -24 -31 -53 -60 -52 -51 -56 -53 -103 -50 -37 2
-50 7 -52 20 -4 23 34 77 62 88 27 11 146 13 146 2z m300 -2 c0 -5 -12 -32
-27 -60 l-28 -50 -103 0 -103 0 3 27 c2 21 14 34 45 51 55 30 213 54 213 32z
m510 1 c0 -5 -7 -14 -16 -22 -8 -7 -24 -30 -35 -51 -19 -38 -20 -38 -79 -38
-49 0 -60 3 -65 20 -12 39 31 86 85 93 66 8 110 7 110 -2z m606 1 c23 -15 74
-96 66 -104 -5 -5 -136 -7 -293 -6 -321 3 -319 2 -258 78 l32 40 221 0 c122 0
226 -4 232 -8z m156 -244 c13 -18 28 -39 32 -45 6 -10 -447 -13 -2249 -13
l-2256 0 31 45 31 45 2193 0 2194 0 24 -32z"/>
<path d="M3279 7410 c-95 -16 -187 -91 -209 -169 -6 -23 -10 -481 -10 -1256
l0 -1220 24 -50 c27 -59 72 -107 130 -138 l41 -22 1845 -3 c2045 -3 1895 -7
1978 64 22 19 53 59 67 88 l27 54 -1 1229 -1 1228 -26 52 c-28 59 -68 96 -134
127 l-45 21 -1820 1 c-1001 1 -1841 -2 -1866 -6z m3588 -186 c15 -11 39 -36
52 -55 l23 -34 -6 -1150 -7 -1150 -25 -38 c-14 -21 -40 -44 -57 -51 -26 -11
-200 -12 -892 -6 -479 5 -1231 4 -1698 -2 -799 -9 -840 -8 -875 9 -20 10 -46
32 -58 50 l-21 32 -8 1133 c-7 1174 -7 1190 33 1237 45 54 -67 51 1794 48
l1717 -2 28 -21z"/>
<path d="M4140 7133 c-49 -7 -146 -46 -195 -78 -124 -79 -208 -218 -310 -517
-197 -573 -219 -1181 -54 -1511 40 -80 80 -122 154 -159 145 -75 278 -88 880
-90 242 -1 649 -3 905 -5 504 -4 852 7 970 32 97 20 205 72 251 120 62 63 117
197 150 360 17 87 24 522 10 647 -33 284 -134 664 -228 853 -70 139 -172 254
-273 305 -98 50 -92 50 -1200 48 -569 0 -1046 -3 -1060 -5z"/>
<path d="M6324 4046 c-3 -13 -4 -37 -2 -52 l3 -29 243 -3 242 -2 0 55 0 55
-240 0 -240 0 -6 -24z"/>
<path d="M6860 4016 l0 -54 60 -4 c33 -1 65 -1 70 0 6 2 10 28 10 58 l0 54
-70 0 -70 0 0 -54z"/>
<path d="M7126 4054 c-9 -25 -7 -82 4 -89 14 -9 102 -15 123 -9 13 4 17 17 17
60 l0 54 -69 0 c-54 0 -70 -4 -75 -16z"/>
<path d="M7300 3323 c-86 -14 -192 -36 -235 -50 -157 -49 -295 -152 -355 -265
-61 -113 -53 -275 21 -425 58 -121 151 -191 325 -245 66 -21 90 -22 578 -26
562 -4 602 -1 736 53 62 25 104 35 155 37 l70 3 -2 90 c-6 268 -176 547 -423
691 -95 56 -255 108 -391 128 -98 15 -409 21 -479 9z m553 -127 c295 -68 505
-249 591 -508 14 -42 26 -88 26 -103 l0 -26 -697 3 -698 3 -57 23 c-133 54
-208 154 -208 280 0 82 25 137 88 192 79 70 229 128 384 150 101 14 491 4 571
-14z"/>
<path d="M7820 3063 c140 -83 170 -120 200 -240 10 -42 25 -80 32 -84 20 -13
82 -11 96 3 15 15 16 144 1 187 -6 17 -31 47 -55 65 -49 37 -200 91 -284 101
l-55 7 65 -39z"/>
</g>
</svg>
