<?xml version="1.0" standalone="no"?>
<!DOCTYPE svg PUBLIC "-//W3C//DTD SVG 20010904//EN"
 "http://www.w3.org/TR/2001/REC-SVG-20010904/DTD/svg10.dtd">
<svg version="1.0" xmlns="http://www.w3.org/2000/svg"
 width="144.000000pt" height="144.000000pt" viewBox="0 0 144.000000 144.000000"
 preserveAspectRatio="xMidYMid meet">
<g transform="translate(0.000000,144.000000) scale(0.014063,-0.014063)"
fill="#000000" stroke="none">
<path d="M2288 8350 c-376 -59 -700 -288 -874 -615 -186 -348 -208 -670 -88
-1275 35 -174 58 -251 110 -356 74 -151 225 -313 404 -432 76 -51 224 -109
355 -139 98 -23 132 -26 310 -26 215 -1 301 12 457 68 320 115 585 390 677
702 27 91 54 231 87 453 35 240 38 498 6 644 -86 391 -320 696 -657 857 -206
98 -303 120 -540 124 -104 2 -216 0 -247 -5z m417 -375 c130 -33 282 -109 370
-183 152 -128 223 -252 275 -476 21 -88 22 -114 17 -264 -21 -616 -163 -937
-479 -1091 -143 -70 -212 -85 -383 -85 -160 1 -250 20 -370 78 -255 125 -374
315 -462 741 -25 120 -28 149 -28 365 0 264 8 311 85 475 96 206 287 361 535
433 95 28 104 29 230 31 89 1 130 -4 210 -24z"/>
<path d="M7545 8350 c-33 -5 -98 -20 -145 -33 -260 -77 -453 -201 -603 -389
-221 -277 -310 -582 -286 -978 19 -307 99 -691 176 -843 116 -230 360 -442
609 -531 152 -54 254 -69 464 -69 218 -1 315 15 482 78 107 40 152 66 278 161
152 114 284 286 345 448 73 193 145 663 145 935 -1 421 -209 806 -562 1037
-124 82 -332 160 -485 183 -81 12 -327 13 -418 1z m408 -374 c261 -67 471
-224 573 -430 69 -142 94 -256 94 -440 -1 -331 -60 -655 -152 -828 -82 -154
-171 -241 -322 -317 -269 -135 -621 -115 -852 48 -203 142 -303 337 -376 729
-18 95 -22 156 -22 327 -1 247 11 309 96 484 44 91 62 116 137 191 98 98 217
172 345 215 110 37 145 43 272 44 88 1 132 -4 207 -23z"/>
<path d="M4944 6935 c-304 -45 -586 -194 -753 -399 -211 -258 -311 -538 -311
-871 0 -174 34 -442 90 -700 62 -287 173 -461 416 -651 132 -103 267 -163 464
-205 148 -31 419 -32 564 0 195 42 315 96 470 212 175 132 300 302 365 495 70
210 131 624 131 893 0 478 -266 907 -685 1107 -242 115 -497 156 -751 119z
m446 -394 c321 -108 502 -301 583 -621 57 -226 -5 -781 -114 -1025 -24 -53
-98 -165 -140 -210 -46 -50 -120 -102 -210 -146 -309 -154 -709 -97 -940 133
-187 186 -298 544 -302 978 -2 198 11 276 68 417 90 224 256 378 505 468 108
39 148 44 310 41 132 -3 154 -6 240 -35z"/>
<path d="M3377 5753 c-2 -4 -26 -75 -52 -158 -108 -342 -218 -637 -261 -703
-15 -22 -20 -23 -92 -19 -42 3 -82 1 -88 -4 -8 -6 -7 -29 2 -81 7 -40 24 -147
38 -238 34 -213 58 -340 66 -340 3 0 40 69 83 153 42 83 97 190 122 237 114
212 284 637 320 799 4 19 15 35 28 41 16 6 34 38 66 120 24 61 42 112 40 114
-4 2 -203 68 -246 80 -12 4 -23 3 -26 -1z"/>
<path d="M8633 5747 c-4 -6 -51 -143 -104 -303 -100 -301 -127 -374 -185 -501
l-34 -75 -85 5 c-47 3 -88 1 -90 -4 -5 -8 12 -130 55 -394 35 -215 45 -265 51
-265 4 0 46 75 93 168 47 92 103 199 124 238 114 215 257 573 312 782 6 23 15
42 21 42 46 0 366 -153 475 -227 248 -170 413 -399 500 -694 l28 -94 4 -406 3
-406 -678 -4 c-373 -2 -721 -2 -773 1 l-95 5 -17 95 c-10 52 -29 165 -43 250
-13 85 -34 214 -45 285 -12 72 -30 184 -40 250 -47 297 -60 369 -68 377 -5 5
-60 7 -123 6 l-114 -3 4 -632 3 -633 -46 0 -46 0 -2 633 -3 632 -109 3 c-60 1
-113 -1 -117 -5 -13 -13 -69 -325 -149 -837 l-19 -120 123 -305 122 -306 1302
-3 1302 -2 0 523 c0 587 -5 641 -77 856 -73 220 -164 363 -342 542 -228 229
-370 304 -876 464 -244 78 -234 75 -242 62z"/>
<path d="M1475 5714 c-404 -128 -530 -174 -631 -230 -385 -213 -638 -551 -723
-966 -37 -178 -42 -278 -39 -753 l3 -460 1309 0 1310 0 119 295 c65 162 119
309 119 325 0 17 -9 89 -21 160 -11 72 -39 245 -61 385 -22 140 -47 287 -55
327 -8 40 -15 75 -15 78 0 3 -53 4 -117 3 l-118 -3 3 -632 3 -633 -51 0 -50 0
0 635 0 635 -114 0 -114 0 -12 -52 c-13 -59 -29 -154 -84 -488 -20 -124 -51
-306 -67 -405 -17 -99 -35 -213 -41 -252 l-11 -73 -784 0 -783 0 0 356 c0 364
6 447 41 564 74 245 199 435 396 599 135 113 279 194 483 271 124 47 117 47
130 -2 21 -82 123 -373 160 -458 21 -47 84 -178 141 -290 56 -113 129 -258
162 -324 32 -65 62 -115 66 -110 5 5 21 83 36 174 15 91 36 212 46 270 11 58
22 131 26 163 l6 59 -93 -4 -93 -3 -17 30 c-49 88 -187 464 -270 738 -39 127
-29 123 -195 71z"/>
<path d="M6740 5716 c-52 -18 -101 -34 -109 -37 -22 -8 66 -228 97 -240 12 -5
22 -15 22 -23 0 -24 85 -274 139 -411 54 -135 376 -788 391 -793 5 -2 11 12
14 30 3 18 13 74 20 123 8 50 31 182 51 293 19 112 32 208 29 214 -4 5 -44 8
-97 6 l-91 -3 -42 95 c-53 121 -175 456 -215 591 -53 178 -58 189 -88 188 -14
0 -69 -15 -121 -33z"/>
<path d="M4235 4335 c-5 -2 -64 -20 -130 -40 -385 -118 -530 -172 -660 -246
-269 -154 -482 -386 -603 -656 -48 -107 -64 -162 -100 -333 l-26 -125 0 -525
-1 -525 2410 0 2410 0 3 515 c2 433 0 530 -13 610 -20 121 -59 264 -92 338
-79 180 -131 263 -251 397 -209 236 -441 371 -852 495 -58 18 -149 47 -203 66
-55 19 -104 34 -111 34 -6 0 -47 -108 -90 -242 -92 -281 -139 -412 -197 -544
l-41 -94 -88 0 c-49 0 -91 -4 -94 -9 -3 -4 3 -59 13 -122 11 -63 34 -204 52
-314 17 -110 35 -206 39 -214 6 -10 29 27 73 115 36 71 87 170 115 221 128
235 260 556 337 821 11 34 24 62 32 62 20 0 158 -57 268 -111 152 -74 279
-162 386 -268 150 -149 245 -311 315 -537 l28 -89 4 -412 3 -413 -768 0 -769
0 -12 48 c-12 46 -24 119 -62 357 -11 66 -29 176 -40 245 -11 69 -27 168 -35
220 -32 203 -63 379 -69 389 -5 7 -50 11 -122 11 l-114 0 0 -635 0 -635 -45 0
-45 0 0 635 0 635 -114 0 c-63 0 -117 -4 -120 -9 -3 -5 -15 -62 -26 -127 -23
-142 -45 -268 -65 -384 -9 -47 -31 -186 -51 -310 -20 -124 -43 -272 -53 -330
l-16 -105 -783 -3 -782 -2 0 362 c0 382 5 441 46 578 86 282 302 557 556 703
119 69 388 187 426 187 5 0 17 -28 27 -62 23 -85 108 -331 134 -393 12 -27 36
-81 54 -120 45 -99 318 -638 328 -649 11 -12 12 -9 43 179 14 88 35 210 45
270 11 61 22 134 26 163 l7 52 -97 0 -96 0 -33 73 c-48 103 -140 355 -203 552
-68 211 -84 255 -92 254 -3 0 -10 -2 -16 -4z"/>
</g>
</svg>
